<svg xmlns="http://www.w3.org/2000/svg" width="92" height="74" viewBox="0 0 92 74">
  <g id="discussion" transform="translate(-0.058 451)">
    <path id="Path_91" data-name="Path 91" d="M52.775-450.525c-1.15.722-1.33,1.311-1.33,4.446v2.679H30.239c-23.021,0-21.907-.057-22.967,1.007-1.1,1.083-1.024-.95-1.078,27.719l-.036,26.18H.784l-.377.513c-.377.494-.377.684-.323,3.667.054,2.964.09,3.192.539,4.085a6.753,6.753,0,0,0,2.66,2.774l.809.456H88.017l.9-.513a6.655,6.655,0,0,0,2.624-2.812c.377-.779.431-1.159.485-3.99.072-2.983.054-3.154-.323-3.667l-.377-.513H85.95V-428.2h1.995c2.408,0,3.163-.323,3.756-1.634.359-.76.359-1.083.323-10.012-.054-8.986-.072-9.233-.431-9.746a5.047,5.047,0,0,0-.863-.912c-.485-.4-.629-.4-18.852-.437L53.512-451ZM89.185-439.6v8.359H79.912c-6.56,0-9.363.057-9.651.209-.2.133-1.6,1.273-3.109,2.565s-2.786,2.356-2.839,2.356a8.913,8.913,0,0,1-.108-1.9c0-2.071-.18-2.7-.845-3.021a25.958,25.958,0,0,0-4.726-.209H54.321V-447.96H89.185Zm-37.776.323-.054,1.1-19.319.095c-18.349.1-19.355.114-19.84.437-1.042.741-1.006-.285-1.006,23.254,0,21.241,0,21.64.359,22.247a3.407,3.407,0,0,0,.935.988c.593.38.988.38,33.57.38s32.977,0,33.57-.38a3.407,3.407,0,0,0,.935-.988c.359-.608.359-1.007.359-18.353v-17.726l1.042.057,1.024.057v39.517H9.123l-.054-25.629c-.018-18.79.018-25.686.162-25.876.18-.228,3.738-.266,21.224-.266H51.463Zm-6.793,13.736v9.5H36.889v-1.767c0-2.394-.323-3.344-1.6-4.693a11.317,11.317,0,0,0-1.33-1.235c-.306-.171-.306-.285-.126-1.083a4.743,4.743,0,0,0-3.954-5.814,4.045,4.045,0,0,0-3.127.741,5.137,5.137,0,0,0-1.9,5.13c.2.779.2.836-.216,1.1a13.549,13.549,0,0,0-1.33,1.254c-1.186,1.254-1.51,2.261-1.51,4.6v1.767H14.065v-19H44.616Zm6.829-7.049c0,2.2.036,2.489.413,3.078.755,1.216,1.186,1.311,5.571,1.311h3.9v2.926c0,2.66.036,2.964.377,3.42a1.054,1.054,0,0,0,1.024.494c.593,0,1.114-.38,4.673-3.42l4.026-3.42h6.613v34.388H74.269v-3.1c0-3.515-.216-4.769-1.132-6.384a8.544,8.544,0,0,0-3.594-3.344l-1.15-.532.467-1.064a5.483,5.483,0,0,0,.467-2.774,5.394,5.394,0,0,0-.485-2.793,7.66,7.66,0,0,0-3.181-3.515,4.7,4.7,0,0,0-2.893-.532c-2.264,0-3.091.323-4.565,1.8a7.194,7.194,0,0,0-1.743,7.2,5.523,5.523,0,0,0,.575,1.463c.126.076-.359.4-1.06.741a8.344,8.344,0,0,0-4.367,5.244,14.235,14.235,0,0,0-.341,4.37v3.211H47.492v-41.227h3.954Zm-20.9,5.415a1.37,1.37,0,0,1,.5,1.254,1.469,1.469,0,0,1-.593,1.349,1.417,1.417,0,0,1-2.157.076,1.766,1.766,0,0,1-.5-2.166,1.5,1.5,0,0,1,1.581-.969A1.686,1.686,0,0,1,30.545-427.176Zm-1.15,6.061c.557-.019,1.4-.038,1.887-.076a2.454,2.454,0,0,1,2.372,1.216,4.021,4.021,0,0,1,.359,2.261v1.672H24.668v-1.615c0-2.223.341-2.888,1.743-3.439a2.436,2.436,0,0,1,1.312-.133A8.389,8.389,0,0,0,29.395-421.115Zm35.493,6.821a3.7,3.7,0,0,1,1.2,1.577c2.049,4.427-3.774,7.96-6.47,3.933a3.037,3.037,0,0,1-.539-2.223,2.961,2.961,0,0,1,.539-2.2,3.463,3.463,0,0,1,3.343-1.653A3.349,3.349,0,0,1,64.888-414.294ZM44.616-403.408v9.594H36.889v-1.767a14.186,14.186,0,0,0-.18-2.413,5.915,5.915,0,0,0-2.157-3.078c-.7-.494-.881-.7-.809-1.007a5.07,5.07,0,0,0-1.15-5.035,3.905,3.905,0,0,0-1.833-1.216,3.63,3.63,0,0,0-2.786-.019,5.017,5.017,0,0,0-3.091,5.985c.144.627.108.684-.647,1.2-1.707,1.14-2.444,2.831-2.444,5.548v1.8H14.065V-413H44.616ZM30.6-404.928a1.864,1.864,0,0,1-.054,2.508,1.684,1.684,0,0,1-2.911-1.254A1.691,1.691,0,0,1,30.6-404.928Zm31.2.855a4.091,4.091,0,0,0,2.462-.1,5.331,5.331,0,0,1,5.679,1.463c1.2,1.311,1.456,2.28,1.456,5.852v3.04H54.141v-3.1c.018-3.306.144-3.971.988-5.263C56.442-404.187,58.6-404.8,61.8-404.073Zm-33.373,5.149a5.17,5.17,0,0,0,2.085-.038c1.168-.209,1.348-.209,1.995.133,1.168.608,1.51,1.368,1.51,3.325v1.691H24.668V-395.5c0-1.919.341-2.717,1.438-3.287A2.708,2.708,0,0,1,28.424-398.924Zm.036,14.363a6.111,6.111,0,0,0,2.642,2.736l.845.456H60.162l.845-.456a6.277,6.277,0,0,0,2.66-2.793l.4-.836h25.16l-.072,1.843c-.036,1.558-.126,1.957-.449,2.451-.9,1.33,2.786,1.216-42.646,1.216s-41.747.114-42.646-1.216c-.323-.494-.413-.893-.449-2.451l-.072-1.843h25.16Zm32.133-.57c-.647.817-.755.817-14.539.817s-13.892,0-14.539-.817c-.216-.3.809-.323,14.539-.323S60.809-385.435,60.593-385.131Z" transform="translate(0 0)"/>
    <path id="Path_92" data-name="Path 92" d="M334.085-416.74A1.9,1.9,0,0,0,333-415.214a1.893,1.893,0,0,0,.422.964l.4.522h24.225l.422-.462a1.519,1.519,0,0,0-.583-2.531C357.1-416.981,334.748-417,334.085-416.74Z" transform="translate(-276.896 -27.229)"/>
    <path id="Path_93" data-name="Path 93" d="M333.566-380.5a1.517,1.517,0,0,0-.241,1.928c.482.643,1.125.783,3.355.783,2.089,0,2.25-.02,2.712-.5a1.505,1.505,0,0,0-.02-2.29c-.482-.382-.8-.422-2.933-.422C334.169-381,334.028-380.98,333.566-380.5Z" transform="translate(-273.675 -56.734)"/>
    <path id="Path_94" data-name="Path 94" d="M381.569-380.5a1.527,1.527,0,0,0,.743,2.611c.261.06,3.576.1,7.352.06l6.91-.06.382-.482a1.557,1.557,0,0,0-.121-2.129l-.482-.5h-14.3Z" transform="translate(-315.32 -56.733)"/>
  </g>
</svg>
